<svg
  width="16"
  height="16"
  viewBox="0 0 16 16"
  fill="none"
  xmlns="http://www.w3.org/2000/svg"
>
  <path
    d="M6.91625 14.7756C6.91625 15.0258 6.81688 15.2656 6.64001 15.4425C6.46314 15.6194 6.22326 15.7188 5.97312 15.7188H1.57187C1.15499 15.7188 0.755175 15.5531 0.460391 15.2584C0.165608 14.9636 0 14.5638 0 14.1469V1.57188C0 1.15499 0.165608 0.755175 0.460391 0.460392C0.755175 0.165608 1.15499 0 1.57187 0H5.97312C6.22326 0 6.46314 0.0993647 6.64001 0.276235C6.81688 0.453105 6.91625 0.692993 6.91625 0.943125C6.91625 1.19326 6.81688 1.43315 6.64001 1.61002C6.46314 1.78689 6.22326 1.88625 5.97312 1.88625H1.88625V13.8325H5.97312C6.22326 13.8325 6.46314 13.9319 6.64001 14.1087C6.81688 14.2856 6.91625 14.5255 6.91625 14.7756ZM15.4429 7.19211L12.2991 4.04836C12.122 3.87119 11.8817 3.77165 11.6311 3.77165C11.3805 3.77165 11.1402 3.87119 10.963 4.04836C10.7859 4.22554 10.6863 4.46585 10.6863 4.71641C10.6863 4.96698 10.7859 5.20728 10.963 5.38446L12.4964 6.91625H5.97312C5.72299 6.91625 5.4831 7.01561 5.30623 7.19249C5.12936 7.36936 5.03 7.60924 5.03 7.85938C5.03 8.10951 5.12936 8.34939 5.30623 8.52627C5.4831 8.70314 5.72299 8.8025 5.97312 8.8025H12.4964L10.9623 10.3359C10.7851 10.513 10.6855 10.7533 10.6855 11.0039C10.6855 11.2545 10.7851 11.4948 10.9623 11.672C11.1394 11.8491 11.3797 11.9487 11.6303 11.9487C11.8809 11.9487 12.1212 11.8491 12.2983 11.672L15.4421 8.52821C15.5301 8.44064 15.5999 8.33657 15.6476 8.22196C15.6952 8.10735 15.7198 7.98445 15.7199 7.86032C15.72 7.7362 15.6955 7.61327 15.648 7.49861C15.6005 7.38394 15.5308 7.27979 15.4429 7.19211Z"
    fill="black"
  />
</svg>